P2
08 08
64
35 31 22 64 19 21 44 24 
02 57 52 47 10 45 17 30 
55 07 23 16 34 08 59 58 
61 42 11 13 49 14 29 41 
53 04 60 62 15 40 01 25 
06 26 54 43 20 48 27 36 
39 37 05 12 50 38 51 28 
09 56 33 03 63 46 32 18 
