P2
08 08
64
59 16 14 42 60 22 43 04 
07 45 46 09 58 33 06 56 
53 39 41 50 02 10 29 36 
27 26 63 23 34 32 37 18 
05 01 24 48 08 62 51 61 
52 57 40 13 38 21 28 11 
03 64 15 55 25 49 19 30 
54 12 17 20 35 31 47 44 
