P2
08 08
64
08 63 02 29 42 51 03 62 
05 20 56 46 04 58 45 26 
53 25 23 59 54 39 06 01 
38 37 47 52 10 17 44 15 
41 30 27 31 50 21 32 28 
48 36 57 12 16 19 11 61 
60 09 14 13 35 22 64 43 
07 40 34 18 49 33 55 24 
