P2
08 08
64
07 46 54 39 21 09 44 40 
47 19 06 12 32 61 56 27 
31 03 55 63 33 13 57 05 
51 26 41 59 01 29 15 38 
14 64 04 34 10 60 16 58 
50 42 43 25 53 28 02 17 
11 24 35 08 48 37 52 45 
49 36 22 20 62 23 18 30 
