P2
08 08
64
37 28 03 55 24 62 13 38 
10 47 63 09 43 60 06 22 
08 54 21 48 33 30 17 49 
11 19 61 44 52 04 64 05 
45 50 25 35 23 27 39 16 
51 32 14 26 58 02 18 59 
42 29 20 36 15 41 46 31 
56 01 53 07 12 34 57 40 
