P2
08 08
64
21 42 59 32 07 25 11 63 
06 61 20 30 05 54 56 28 
53 12 36 47 41 04 03 64 
16 44 14 40 37 27 58 24 
34 08 38 51 17 29 60 23 
46 45 18 10 48 31 19 43 
62 09 26 15 50 33 52 13 
22 39 49 35 55 57 01 02 
