P2
08 08
64
38 18 41 37 02 52 14 58 
23 56 07 31 55 19 48 21 
53 11 36 12 24 13 49 62 
05 61 42 35 03 25 59 30 
54 01 51 32 33 63 22 04 
16 47 34 64 57 10 15 17 
26 27 29 06 40 28 44 60 
45 39 20 43 46 50 09 08 
