P2
08 08
64
49 01 09 51 59 44 30 17 
26 53 60 42 13 22 37 07 
06 29 34 56 43 31 11 50 
19 28 45 08 35 33 38 54 
15 12 61 27 14 62 64 05 
58 32 25 63 21 04 18 39 
47 48 02 03 55 23 46 36 
40 57 24 10 20 41 16 52 
