P2
08 08
64
17 53 26 64 07 34 18 41 
49 27 60 15 33 16 28 32 
47 21 50 38 22 11 13 58 
02 04 59 39 45 56 46 09 
37 43 01 29 48 52 08 42 
31 62 03 57 30 23 35 19 
14 40 25 12 20 44 51 54 
63 10 36 06 55 24 61 05 
