P2
08 08
64
09 61 34 62 30 51 02 11 
53 55 48 41 21 04 22 16 
10 44 17 24 46 32 29 58 
05 18 12 06 47 57 63 52 
45 07 23 37 40 15 39 54 
49 13 43 26 59 31 38 01 
56 35 19 36 14 50 42 08 
33 27 64 28 03 20 25 60 
