P2
08 08
64
19 23 43 60 32 61 10 12 
44 27 38 25 08 47 56 15 
14 30 20 07 16 64 55 54 
28 39 06 59 36 29 18 45 
52 48 50 09 35 22 03 41 
37 46 33 11 63 34 05 31 
42 26 17 40 13 02 62 58 
24 21 53 49 57 01 51 04 
