P2
08 08
64
62 28 46 21 52 18 07 26 
01 31 34 47 23 41 30 53 
04 45 08 51 63 13 40 36 
37 64 57 24 16 42 17 03 
43 12 02 58 25 27 60 33 
32 11 09 35 14 54 61 44 
22 49 56 19 38 55 06 15 
59 20 48 05 29 10 39 50 
