P2
08 08
64
32 62 46 20 60 27 11 02 
38 08 10 42 25 28 50 59 
47 33 53 51 15 16 06 39 
19 48 12 34 05 41 56 45 
29 04 49 57 43 17 54 07 
22 58 52 09 13 40 03 63 
18 23 37 21 64 30 36 31 
55 24 01 26 35 61 44 14 
