P2
08 08
64
05 29 38 23 60 56 12 37 
28 41 45 10 11 59 64 02 
32 07 31 61 63 16 47 03 
39 40 24 57 49 06 30 15 
20 55 27 22 21 54 17 44 
35 18 13 52 04 43 42 53 
50 08 46 26 33 25 14 58 
51 62 36 09 19 01 34 48 
