P2
08 08
64
55 23 17 05 06 35 60 59 
61 49 53 11 03 62 02 19 
64 14 08 57 34 40 22 21 
15 41 45 18 47 31 37 26 
44 27 32 54 46 28 13 16 
04 29 09 42 58 12 50 56 
07 39 63 25 30 01 52 43 
10 38 33 48 36 51 24 20 
