P2
08 08
64
60 47 32 13 04 64 22 18 
03 35 56 09 59 21 24 53 
23 55 10 42 27 46 06 51 
37 08 28 44 63 14 49 17 
34 40 02 50 16 26 30 62 
31 12 33 54 05 39 48 38 
57 11 58 29 25 43 36 01 
15 52 41 19 61 07 45 20 
