P2
08 08
64
03 36 41 51 57 38 29 05 
37 62 06 12 43 13 45 42 
47 27 44 63 01 17 54 07 
19 40 53 24 28 15 26 55 
09 25 48 20 34 52 11 61 
59 04 46 30 23 33 16 49 
22 35 14 50 56 60 21 02 
64 31 08 10 18 32 58 39 
