P2
08 08
64
32 44 04 37 35 19 51 38 
34 10 46 48 06 41 14 61 
31 57 36 25 40 59 11 01 
13 58 64 07 52 16 33 17 
63 26 29 05 20 53 42 22 
18 30 24 45 28 54 49 12 
09 08 55 43 56 03 39 47 
60 27 02 50 23 15 21 62 
