P2
08 08
64
18 32 43 36 22 13 37 59 
25 54 21 62 17 64 14 03 
52 02 44 56 26 50 11 19 
16 10 15 12 57 29 61 60 
33 51 35 07 24 09 38 63 
58 48 45 01 34 42 04 28 
53 23 30 55 39 06 46 08 
05 40 27 31 41 47 49 20 
