P2
08 08
64
36 50 52 41 11 47 10 13 
49 07 29 61 09 53 48 04 
40 64 02 57 37 17 08 35 
15 45 26 24 39 32 25 54 
23 05 58 21 63 01 33 56 
42 20 59 16 19 44 14 46 
43 51 03 06 27 38 62 30 
12 18 31 34 55 28 60 22 
