P2
08 08
64
45 09 37 16 60 46 40 07 
47 12 19 61 53 26 34 08 
06 48 22 51 20 44 55 14 
64 15 02 63 33 41 10 32 
23 31 56 38 13 01 36 62 
18 42 27 17 04 43 50 59 
29 49 58 11 52 35 05 21 
28 54 39 03 25 24 30 57 
