P2
08 08
64
56 16 60 02 51 32 22 21 
38 18 47 12 55 17 11 62 
40 48 19 05 41 64 36 07 
35 43 27 63 14 26 03 49 
28 31 45 44 09 13 53 37 
24 01 50 15 59 23 54 34 
29 46 04 61 06 52 42 20 
10 57 08 58 25 33 39 30 
