P2
08 08
64
10 20 59 40 38 15 26 52 
61 36 17 09 16 54 62 05 
24 55 27 33 63 02 53 03 
42 48 32 18 08 44 11 57 
21 01 58 30 51 45 25 29 
28 04 22 60 34 43 23 46 
39 49 14 64 13 50 19 12 
35 47 31 06 37 07 41 56 
