P2
08 08
64
45 59 20 53 05 16 39 23 
47 07 30 44 34 18 26 54 
48 33 27 41 56 22 21 12 
09 42 36 06 62 52 49 04 
28 01 32 61 29 35 55 19 
11 50 43 17 40 51 02 46 
57 08 14 25 24 63 31 38 
15 60 58 13 10 03 37 64 
