P2
08 08
64
60 01 07 34 58 48 35 17 
32 13 18 12 16 52 63 54 
28 37 40 43 49 08 50 05 
06 53 09 25 55 56 33 23 
14 61 26 45 39 10 24 41 
47 27 57 19 02 42 30 36 
62 04 44 51 21 29 03 46 
11 64 59 31 20 15 22 38 
