P2
08 08
64
52 04 42 06 35 37 51 33 
55 15 19 08 17 60 38 48 
22 47 39 27 53 11 58 03 
07 21 64 36 12 45 18 57 
40 62 02 28 30 05 32 61 
25 23 41 50 31 63 13 14 
16 54 44 59 56 10 01 20 
43 34 09 46 26 29 49 24 
