P2
08 08
64
64 19 39 23 46 33 28 08 
38 16 35 12 44 09 47 59 
18 57 42 58 32 45 06 02 
15 36 24 25 52 27 55 26 
11 62 49 29 10 31 07 61 
17 37 13 48 21 43 41 40 
34 03 05 51 01 50 56 60 
63 30 53 14 54 22 20 04 
