P2
08 08
64
20 35 61 29 49 21 06 39 
46 16 08 54 05 58 60 13 
55 64 26 22 52 30 09 02 
17 23 45 34 11 19 63 48 
57 03 50 07 41 31 15 56 
10 42 33 62 18 44 24 27 
12 37 01 38 59 53 32 28 
43 40 36 14 25 04 51 47 
