P2
08 08
64
33 02 60 24 55 06 26 54 
05 50 31 41 04 59 58 12 
15 45 27 40 61 30 32 10 
16 38 35 21 18 51 62 19 
56 39 47 22 53 01 08 34 
46 28 17 25 36 42 03 63 
37 09 14 43 13 64 23 57 
52 49 29 44 20 07 48 11 
