P2
08 08
64
34 62 15 30 51 11 33 24 
37 17 39 36 18 43 26 44 
57 03 29 20 54 35 60 02 
21 58 61 28 04 19 06 63 
10 16 25 23 42 53 64 27 
45 38 41 22 09 40 52 13 
08 59 49 55 32 12 14 31 
48 07 01 46 50 47 05 56 
