P2
08 08
64
06 45 21 44 58 33 38 15 
17 16 31 64 47 09 40 36 
26 50 59 20 05 19 52 29 
46 12 56 03 39 53 02 49 
57 27 07 34 37 22 28 48 
32 60 30 24 13 62 14 25 
35 42 01 61 43 51 23 04 
41 08 55 10 18 11 63 54 
