P2
08 08
64
33 39 14 15 59 43 50 07 
38 20 49 31 64 11 42 05 
21 55 28 23 24 17 29 63 
09 19 61 34 03 58 16 60 
51 36 35 54 10 12 22 40 
46 13 45 52 06 41 56 01 
18 48 26 47 32 25 37 27 
44 30 02 04 62 53 08 57 
