P2
08 08
64
45 32 10 33 63 64 08 05 
14 60 13 55 26 41 31 20 
30 07 35 15 01 51 62 59 
06 54 61 17 48 19 21 34 
24 16 50 38 18 22 43 49 
37 25 03 58 56 23 46 12 
47 27 52 42 44 11 09 28 
57 39 36 02 04 29 40 53 
