P2
08 08
64
42 63 08 49 02 61 11 24 
35 20 50 01 03 43 46 62 
15 14 64 18 41 55 25 28 
59 05 45 44 36 06 38 27 
13 51 23 26 60 39 19 29 
12 32 21 57 47 09 48 34 
54 22 16 58 31 10 17 52 
30 53 33 07 40 37 56 04 
