P2
08 08
64
28 21 52 07 06 37 62 47 
11 59 30 58 25 33 41 03 
34 63 15 61 46 20 12 09 
39 32 53 10 38 35 05 48 
50 42 55 16 27 19 02 49 
13 04 36 57 51 31 14 54 
45 22 18 08 23 56 64 24 
40 17 01 43 44 29 60 26 
