P2
08 08
64
14 06 38 61 53 15 30 43 
41 56 52 22 47 20 03 19 
63 64 44 18 01 31 12 27 
46 09 40 32 54 37 16 26 
28 17 05 39 33 55 34 49 
35 51 58 10 23 11 48 24 
08 07 21 42 04 62 57 59 
25 50 02 36 45 29 60 13 
