P2
08 08
64
23 60 57 36 10 47 20 07 
04 48 30 15 64 03 38 58 
63 43 22 01 32 35 31 33 
39 54 02 21 19 53 59 13 
12 14 45 51 49 26 17 46 
61 09 55 62 16 11 06 40 
08 05 24 56 42 44 52 29 
50 27 25 18 28 41 37 34 
