P2
08 08
64
49 36 01 04 63 46 58 03 
45 29 62 30 19 38 14 23 
09 22 12 53 57 10 54 43 
18 28 26 21 39 41 56 31 
20 11 47 52 35 07 33 55 
37 60 51 16 17 64 13 02 
50 59 27 44 05 06 08 61 
32 15 34 40 25 48 24 42 
