P2
08 08
64
44 52 53 49 11 23 15 13 
02 28 61 34 12 16 47 60 
40 18 30 64 27 21 09 51 
37 55 08 10 17 59 26 48 
38 32 05 24 63 39 58 01 
36 06 54 19 35 25 43 42 
41 62 03 04 50 57 29 14 
22 07 46 56 45 20 33 31 
