P2
08 08
64
28 56 58 15 38 26 37 02 
01 61 06 09 47 22 63 51 
36 05 53 27 52 11 32 44 
45 21 04 39 17 33 41 60 
35 24 59 19 31 64 20 08 
57 23 48 55 03 25 07 42 
12 54 18 34 43 49 10 40 
46 16 14 62 29 30 50 13 
