P2
08 08
64
17 38 60 44 12 15 61 13 
43 08 53 06 30 57 26 37 
41 09 28 11 42 04 63 62 
14 54 24 55 48 05 29 31 
35 23 33 59 20 51 21 18 
39 27 16 64 03 46 25 40 
22 45 36 19 47 50 34 07 
49 56 10 02 58 32 01 52 
