P2
08 08
64
64 27 48 11 23 20 45 22 
02 55 52 07 58 25 47 14 
46 42 09 39 21 08 44 51 
05 63 59 29 03 61 06 34 
18 04 12 50 36 43 40 57 
26 24 38 54 53 19 13 33 
37 30 41 60 31 28 16 17 
62 15 01 10 35 56 49 32 
