P2
08 08
64
40 10 44 38 64 07 43 14 
51 18 24 48 08 30 27 54 
47 12 33 13 29 32 55 39 
37 63 21 01 41 61 11 25 
03 20 23 58 42 50 02 62 
60 36 31 34 15 16 59 09 
17 52 28 22 35 45 57 04 
05 49 56 46 26 19 06 53 
