P2
08 08
64
61 44 29 32 10 18 54 12 
04 37 34 47 30 35 40 33 
46 05 60 41 24 42 20 22 
17 48 39 03 38 21 31 63 
50 02 15 62 25 49 06 51 
36 55 26 16 53 08 07 59 
19 13 43 01 52 64 57 11 
27 56 14 58 28 23 45 09 
