P2
08 08
64
62 41 09 01 48 63 02 34 
51 32 31 27 54 08 50 07 
12 40 60 37 36 11 45 19 
17 29 16 15 28 64 53 38 
49 22 06 55 24 20 58 26 
21 57 33 46 10 03 43 47 
13 14 61 56 42 39 05 30 
35 25 44 23 18 52 04 59 
