P2
08 08
64
42 28 27 32 20 07 56 48 
10 40 16 19 17 39 59 60 
26 50 52 33 44 13 06 36 
61 31 43 15 34 64 03 09 
11 47 38 54 37 63 08 02 
62 01 12 21 49 05 53 57 
30 22 58 51 04 24 46 25 
18 41 14 35 55 45 29 23 
