P2
08 08
64
28 27 18 51 54 01 55 26 
38 56 03 64 32 35 19 13 
37 02 58 05 22 34 53 49 
36 62 57 06 11 33 40 15 
12 41 16 63 14 61 46 07 
43 23 52 04 59 29 08 42 
21 10 31 47 44 50 09 48 
45 39 25 20 24 17 30 60 
