P2
08 08
64
27 07 23 42 62 41 54 04 
45 49 14 34 08 18 63 29 
06 53 31 21 36 60 16 37 
48 24 52 11 40 09 20 56 
13 46 47 22 17 33 32 50 
19 25 02 57 35 55 39 28 
38 05 61 58 59 01 26 12 
64 51 30 15 03 43 10 44 
