P2
08 08
64
41 22 49 25 42 19 01 61 
55 50 30 26 16 47 24 12 
64 29 09 10 48 17 63 20 
05 21 14 53 27 62 43 35 
36 03 60 38 39 32 34 18 
08 56 15 23 04 59 37 58 
06 33 52 57 40 11 07 54 
45 46 31 28 44 13 51 02 
