P2
08 08
64
09 19 62 42 33 25 13 57 
54 59 02 45 38 01 26 35 
52 21 53 14 61 04 40 15 
31 12 23 29 43 55 50 17 
07 44 60 36 08 46 22 37 
10 49 06 58 11 34 28 64 
41 32 03 16 27 48 63 30 
56 24 51 20 39 47 18 05 
