P2
08 08
64
05 06 55 16 46 58 60 14 
53 32 48 17 38 01 30 41 
24 59 39 28 20 36 10 44 
18 04 19 52 37 54 26 50 
47 49 45 25 34 51 02 07 
23 33 22 56 15 40 62 09 
29 35 21 63 13 08 27 64 
61 42 11 03 57 12 43 31 
