P2
08 08
64
35 53 04 10 13 45 63 37 
27 24 41 44 57 15 40 12 
46 09 16 59 64 32 06 28 
26 08 25 49 23 58 21 50 
11 38 61 01 33 34 39 43 
56 19 48 36 54 22 07 18 
42 62 60 30 14 03 29 20 
17 47 05 31 02 51 55 52 
