P2
08 08
64
51 07 56 25 44 11 31 35 
53 26 22 16 42 47 37 17 
34 09 46 60 43 10 06 52 
03 61 05 23 49 12 57 50 
21 55 62 15 18 28 20 41 
04 58 38 64 24 45 14 13 
54 36 29 27 01 48 32 33 
40 08 02 30 39 59 63 19 
