P2
08 08
64
12 21 28 45 11 37 57 49 
56 42 10 62 17 41 07 25 
18 36 60 39 27 59 16 05 
64 32 53 19 08 01 40 43 
46 03 09 47 61 33 31 30 
48 34 13 06 55 24 54 26 
02 63 52 22 58 15 04 44 
14 29 35 20 23 50 51 38 
