P2
08 08
64
60 59 04 20 19 05 43 50 
01 24 58 40 52 46 29 10 
54 13 41 62 16 11 61 02 
38 08 42 14 17 49 55 37 
34 35 28 09 18 33 39 64 
07 23 48 63 25 53 15 26 
21 51 36 30 57 32 06 27 
45 47 03 22 56 31 12 44 
