P2
08 08
64
04 19 13 48 59 34 38 45 
49 30 36 08 09 62 55 11 
28 53 64 39 23 35 17 01 
61 37 27 56 26 18 25 10 
41 05 60 07 16 33 40 58 
06 52 43 47 54 12 14 32 
42 20 15 31 22 63 21 46 
29 44 02 24 51 03 50 57 
