P2
08 08
64
02 09 10 27 64 52 33 63 
35 56 49 17 47 25 30 01 
19 43 26 28 57 22 53 12 
31 13 15 62 20 38 42 39 
44 41 23 08 18 50 40 36 
60 32 34 51 04 54 11 14 
45 59 55 06 29 03 05 58 
24 07 48 61 21 16 46 37 
