P2
08 08
64
53 56 28 29 06 24 12 52 
36 17 21 60 45 05 50 26 
16 62 37 04 48 19 10 64 
23 14 42 09 34 44 33 61 
35 22 54 07 59 15 43 25 
39 08 11 46 63 41 51 01 
20 49 27 58 02 55 31 18 
38 32 40 47 03 57 30 13 
