P2
08 08
64
03 34 50 11 49 54 21 38 
59 47 31 27 05 08 42 41 
22 20 30 29 52 17 35 55 
40 24 06 57 10 33 64 26 
19 56 63 07 16 48 37 14 
44 02 23 58 36 43 09 45 
12 62 04 25 60 18 51 28 
61 15 53 46 32 39 01 13 
