P2
08 08
64
49 61 05 36 35 13 15 46 
63 48 14 04 17 57 26 31 
01 06 58 24 51 42 25 53 
55 43 32 39 20 08 54 09 
18 03 62 21 19 60 27 50 
07 64 45 33 52 11 38 10 
30 23 16 47 22 29 34 59 
37 12 28 56 44 40 41 02 
