P2
08 08
64
53 58 09 26 05 48 04 57 
50 03 11 40 30 24 38 64 
06 37 31 45 43 15 44 39 
28 47 52 27 41 29 34 02 
63 18 12 01 59 54 46 07 
33 42 62 56 25 14 20 08 
17 36 32 49 35 55 13 23 
10 19 51 16 22 21 61 60 
