P2
08 08
64
62 04 28 09 54 12 40 51 
34 48 19 43 01 60 44 11 
22 37 17 24 18 47 56 39 
42 61 33 23 35 14 21 31 
29 27 55 25 58 20 30 16 
46 13 36 45 38 06 26 50 
10 07 08 32 53 52 41 57 
15 63 64 59 03 49 02 05 
