P2
08 08
64
54 58 61 05 07 46 14 15 
01 20 34 11 64 57 38 35 
12 31 16 63 39 62 27 10 
08 41 33 55 09 42 47 25 
44 23 30 24 36 26 17 60 
59 13 03 50 51 02 37 45 
29 56 40 48 32 06 28 21 
53 18 43 04 22 19 52 49 
