P2
08 08
64
23 14 52 31 26 24 41 49 
43 15 42 18 37 32 53 20 
05 36 33 64 22 48 39 13 
57 35 54 28 09 27 04 46 
61 38 01 30 29 03 40 58 
07 50 16 25 44 55 51 12 
19 10 60 47 34 63 21 06 
45 62 02 17 59 08 11 56 
