P2
08 08
64
54 56 18 55 13 01 47 16 
35 04 22 20 23 59 51 46 
17 52 41 43 44 37 02 24 
27 26 38 11 45 29 34 50 
63 12 60 25 10 32 05 53 
14 62 15 64 48 21 33 03 
19 40 09 36 49 42 58 07 
31 08 57 06 28 39 30 61 
