P2
08 08
64
19 33 34 31 20 59 42 22 
44 32 14 40 03 39 28 60 
35 15 58 07 49 25 63 08 
36 54 46 12 43 01 21 47 
56 29 02 10 64 41 13 45 
11 57 53 50 27 05 06 51 
04 24 30 48 37 38 61 18 
55 16 23 62 17 52 26 09 
