P2
08 08
64
58 42 59 07 04 35 03 52 
38 37 57 02 15 64 36 11 
47 16 05 56 60 30 34 12 
45 43 08 55 09 25 53 22 
33 01 31 39 14 27 61 54 
13 41 26 29 46 44 21 40 
06 48 51 10 49 18 28 50 
20 32 23 62 63 17 24 19 
