P2
08 08
64
08 51 38 55 34 24 44 06 
56 39 16 40 25 46 02 36 
19 29 35 26 33 45 52 21 
32 14 37 49 10 64 07 47 
43 22 58 63 59 01 03 11 
12 57 41 05 30 04 50 61 
28 31 15 13 42 23 48 60 
62 17 20 09 27 53 54 18 
