P2
08 08
64
54 04 47 26 10 48 44 27 
34 01 61 45 37 20 13 49 
15 43 06 41 12 46 40 57 
38 39 05 23 55 22 14 64 
35 29 62 02 58 21 42 11 
56 33 32 07 28 50 30 24 
03 60 31 63 08 17 59 19 
25 51 16 53 52 36 18 09 
