P2
08 08
64
04 11 57 35 33 18 43 59 
17 54 64 01 44 06 21 53 
52 41 07 47 38 58 12 05 
42 63 48 19 30 22 34 02 
51 40 03 27 36 46 49 08 
45 09 29 31 50 60 20 16 
23 10 28 61 14 37 25 62 
26 32 24 39 15 13 56 55 
