P2
08 08
64
30 48 41 34 39 27 31 10 
02 47 62 29 60 05 15 40 
09 01 26 32 20 56 57 59 
13 16 33 22 44 36 54 42 
58 21 14 19 63 12 28 45 
46 35 23 61 24 49 18 04 
64 55 08 52 07 25 06 43 
38 37 53 11 03 50 51 17 
