P2
08 08
64
39 64 54 32 03 08 49 11 
58 21 20 30 38 57 19 17 
48 24 46 04 10 63 43 22 
02 15 59 14 61 28 37 44 
60 35 01 34 29 23 25 53 
05 18 09 41 26 62 47 52 
12 27 40 55 42 06 33 45 
36 56 31 50 51 13 07 16 
