P2
08 08
64
34 52 51 11 24 40 46 02 
09 15 42 04 62 08 56 64 
37 35 29 30 33 39 47 10 
61 32 41 57 28 01 23 17 
20 54 21 60 19 53 06 27 
45 31 14 22 43 55 12 38 
18 25 49 50 48 05 07 58 
36 16 13 26 03 59 63 44 
