P2
08 08
64
31 37 52 23 02 58 27 30 
13 26 50 42 22 44 28 35 
32 24 64 17 36 08 38 41 
07 43 63 18 62 05 46 16 
51 45 11 56 29 04 15 49 
25 06 09 03 54 47 59 57 
53 19 01 61 34 39 33 20 
48 60 10 40 21 55 14 12 
