P2
08 08
64
05 38 23 40 06 57 43 48 
16 42 10 31 58 55 46 02 
01 60 61 12 32 27 52 15 
59 25 36 22 30 13 24 51 
49 18 21 39 50 04 17 62 
54 33 47 63 26 11 07 19 
56 03 53 08 14 64 34 28 
20 41 09 45 44 29 37 35 
