P2
08 08
64
63 22 52 04 44 58 15 02 
49 38 21 43 24 39 13 33 
20 03 18 01 56 60 54 48 
42 07 23 28 25 34 51 50 
26 57 59 53 06 09 19 31 
17 47 45 08 11 41 36 55 
27 46 32 62 30 14 37 12 
16 40 10 61 64 05 35 29 
