P2
08 08
64
02 26 52 61 10 55 39 15 
50 57 19 11 14 48 41 20 
16 38 29 60 45 18 03 51 
53 36 46 25 40 30 08 22 
32 07 43 24 34 35 27 58 
06 44 33 13 49 28 56 31 
59 47 17 12 64 37 23 01 
42 05 21 54 04 09 63 62 
