P2
08 08
64
60 05 03 27 26 50 34 55 
54 21 64 07 19 12 38 45 
01 30 25 43 58 04 47 52 
13 53 39 15 41 48 11 40 
42 32 35 23 17 18 57 36 
37 29 24 51 62 49 02 06 
22 44 14 33 09 59 63 16 
31 46 56 61 28 20 08 10 
