P2
08 08
64
19 53 04 47 46 05 51 35 
27 38 31 48 56 36 02 22 
61 17 63 49 20 21 15 14 
10 32 34 26 64 45 24 25 
06 23 59 16 08 50 54 44 
42 57 30 13 07 39 43 29 
40 37 11 60 18 52 09 33 
55 03 28 01 41 12 62 58 
