P2
08 08
64
49 01 41 09 23 58 48 31 
02 29 37 12 26 55 38 61 
53 32 13 63 47 10 07 35 
19 43 24 25 42 11 36 60 
33 27 57 08 59 34 28 14 
05 20 21 62 44 40 18 50 
45 56 16 64 15 22 39 03 
54 52 51 17 04 30 46 06 
