P2
08 08
64
33 39 52 04 13 49 12 58 
07 40 56 64 22 51 11 09 
02 16 14 63 48 01 61 55 
24 32 21 42 06 60 57 18 
53 17 41 46 30 08 27 38 
54 37 36 23 29 26 45 10 
44 59 05 15 50 34 28 25 
43 20 35 03 62 31 19 47 
