P2
08 08
64
63 32 15 11 05 61 59 14 
56 48 35 16 47 06 07 45 
49 34 30 26 31 33 28 29 
01 22 60 10 50 23 36 58 
57 12 13 54 42 18 62 02 
09 53 39 41 19 27 21 51 
17 55 25 38 46 52 03 24 
08 04 43 64 20 40 44 37 
