P2
08 08
64
27 44 10 51 55 22 25 26 
14 52 04 45 62 01 54 28 
34 05 61 36 37 53 32 02 
24 40 35 16 03 59 63 20 
50 31 43 41 11 09 15 60 
47 06 58 08 23 48 21 49 
57 18 19 17 56 39 12 42 
07 64 30 46 13 29 38 33 
