P2
08 08
64
28 18 48 29 40 14 51 32 
37 53 24 06 62 30 44 04 
43 35 34 50 36 08 07 47 
22 23 27 46 16 64 49 13 
21 11 10 41 38 61 20 58 
59 26 45 01 60 02 15 52 
31 55 63 54 03 25 17 12 
19 39 09 33 05 56 57 42 
