P2
08 08
64
52 11 30 49 15 61 08 34 
47 48 21 25 23 43 24 29 
32 22 53 41 58 27 10 17 
42 63 05 01 60 14 57 18 
03 62 28 50 19 12 35 51 
37 07 54 06 26 40 46 44 
45 09 56 55 39 04 16 36 
02 38 13 33 20 59 64 31 
