P2
08 08
64
62 36 13 26 33 30 03 57 
50 38 17 15 42 07 54 37 
09 56 59 47 08 21 46 14 
27 10 53 22 52 45 11 40 
16 41 32 19 01 49 44 58 
60 05 06 64 20 48 23 34 
24 39 55 04 61 31 28 18 
12 35 25 63 43 29 51 02 
