P2
08 08
64
40 37 18 54 09 42 56 04 
01 61 07 19 49 26 33 64 
51 36 08 24 28 30 62 21 
39 06 57 14 34 16 46 48 
50 63 13 35 53 03 12 31 
22 05 52 59 15 44 20 43 
10 25 60 23 17 58 29 38 
47 27 45 32 55 41 02 11 
