P2
08 08
64
02 49 42 45 37 30 40 15 
17 50 51 13 22 48 24 35 
27 01 32 59 43 41 34 23 
56 36 31 53 20 08 04 52 
62 07 46 39 11 55 28 12 
47 26 19 25 09 14 63 57 
05 58 18 10 64 61 38 06 
44 33 21 16 54 03 29 60 
