P2
08 08
64
02 40 31 44 04 61 36 42 
03 05 63 57 30 08 46 48 
54 29 59 41 23 19 20 15 
39 43 21 14 32 62 25 24 
47 06 27 22 58 49 01 50 
26 64 34 38 55 09 16 18 
52 28 13 11 51 35 60 10 
37 45 12 33 07 17 56 53 
