P2
08 08
64
23 18 35 44 14 46 19 61 
01 50 55 22 33 57 38 04 
36 20 32 60 17 24 12 59 
21 45 30 07 26 40 42 49 
09 58 16 48 31 28 43 27 
54 10 02 39 62 47 05 41 
63 08 34 11 52 15 64 13 
53 51 56 29 25 03 37 06 
