P2
08 08
64
29 01 46 22 41 55 53 13 
02 38 57 61 05 23 31 43 
56 35 10 45 09 21 58 26 
40 19 48 30 51 17 03 52 
24 36 54 63 27 06 42 08 
47 32 16 12 64 49 15 25 
34 37 11 20 04 50 44 60 
28 62 18 07 59 39 14 33 
