P2
08 08
64
41 11 64 05 61 34 16 28 
54 09 04 17 51 29 50 46 
27 42 55 21 23 22 30 40 
39 33 07 58 02 45 63 13 
26 53 15 52 44 08 37 25 
48 38 56 32 20 03 01 62 
06 31 47 57 35 60 14 10 
19 43 12 18 24 59 49 36 
