P2
08 08
64
57 07 11 44 51 31 46 13 
56 16 10 43 38 18 19 60 
64 24 08 34 22 50 35 23 
17 48 27 26 40 59 29 14 
21 42 53 58 45 12 28 01 
15 30 36 06 20 37 61 55 
25 39 63 02 41 49 09 32 
05 54 52 47 03 04 33 62 
