P2
08 08
64
06 10 54 45 08 52 42 43 
15 24 27 64 55 34 13 28 
11 62 47 35 22 14 50 19 
59 37 33 16 58 36 01 20 
56 53 02 12 29 41 04 63 
17 23 60 18 48 51 40 03 
57 21 05 26 31 25 49 46 
39 30 32 44 09 07 61 38 
