P2
08 08
64
33 17 57 04 53 19 28 49 
56 54 30 06 42 36 02 34 
23 20 05 41 60 48 13 50 
21 26 35 52 12 39 32 43 
31 59 61 40 09 07 45 08 
44 27 11 29 46 38 62 03 
01 47 37 63 22 58 14 18 
51 10 24 25 16 15 64 55 
