P2
08 08
64
20 02 56 37 52 61 05 27 
62 46 09 33 10 17 43 40 
08 29 21 42 63 45 41 11 
50 12 18 54 06 58 55 07 
14 60 48 03 35 13 38 49 
28 16 32 59 24 15 22 64 
25 51 19 31 34 47 30 23 
53 44 57 01 36 04 26 39 
