P2
08 08
64
29 17 46 12 42 47 39 28 
63 34 51 04 58 05 10 35 
09 64 30 14 62 57 06 18 
60 03 15 49 11 37 24 61 
02 43 55 41 21 32 59 07 
27 31 36 40 13 22 53 38 
16 23 26 56 33 08 50 48 
54 45 01 44 20 52 19 25 
