P2
08 08
64
34 55 12 46 23 02 50 38 
58 17 63 09 64 03 41 05 
19 40 30 61 26 20 21 43 
28 56 18 53 29 42 24 10 
31 08 35 06 36 33 51 60 
01 25 47 32 13 57 37 48 
62 52 16 04 15 44 22 45 
27 07 39 49 54 59 14 11 
