P2
08 08
64
38 33 14 43 55 22 47 08 
13 64 19 12 23 44 34 51 
56 17 01 58 28 40 11 49 
06 25 07 37 39 45 53 48 
32 26 61 59 54 09 16 03 
35 62 46 10 02 27 21 57 
50 04 52 36 41 42 15 20 
30 29 60 05 18 31 63 24 
