P2
08 08
64
19 38 25 42 03 33 49 51 
18 05 14 40 43 59 50 31 
62 08 41 04 45 15 37 48 
36 28 64 12 07 46 20 47 
56 02 58 44 57 26 06 11 
17 55 09 54 32 53 24 16 
29 61 39 30 13 01 52 35 
23 63 10 34 60 27 22 21 
