P2
08 08
64
49 53 28 02 39 56 08 25 
43 15 06 50 58 13 27 48 
01 41 59 52 10 17 64 16 
60 46 04 32 47 36 14 21 
30 07 44 05 51 54 38 31 
34 23 57 22 26 11 45 42 
24 63 33 62 20 18 03 37 
19 12 29 35 09 55 61 40 
