P2
08 08
64
17 09 62 29 38 26 61 18 
23 48 03 40 32 19 49 46 
50 15 13 35 37 45 44 21 
39 14 60 27 34 47 33 06 
02 56 07 57 41 22 24 51 
63 64 20 05 08 31 10 59 
30 01 43 42 54 58 28 04 
36 53 52 25 16 12 11 55 
