P2
08 08
64
16 30 32 02 44 59 42 35 
50 08 62 36 05 14 40 45 
20 29 64 54 21 24 41 07 
56 31 11 61 43 39 15 04 
26 63 01 09 34 55 12 60 
10 22 33 53 38 18 37 49 
25 19 51 17 52 03 46 47 
57 58 06 28 23 48 27 13 
