P2
08 08
64
35 26 58 18 42 33 04 44 
55 07 25 46 45 31 22 29 
14 16 63 13 32 38 60 24 
43 01 20 56 12 28 47 53 
37 49 41 19 03 08 39 64 
15 52 05 23 36 57 62 10 
02 61 27 51 50 54 09 06 
59 48 21 34 40 11 17 30 
