P2
08 08
64
57 11 23 46 25 18 56 24 
03 45 33 30 16 58 21 54 
09 64 15 59 50 07 19 37 
27 36 41 06 34 48 51 17 
60 14 01 43 62 40 02 38 
47 20 53 35 28 04 42 31 
05 26 55 29 13 22 61 49 
52 44 39 12 32 63 08 10 
