P2
08 08
64
30 39 45 15 55 13 12 51 
26 48 16 60 25 27 44 14 
41 10 46 47 28 34 43 11 
01 64 22 29 21 62 04 57 
54 35 59 17 18 52 23 02 
42 31 08 07 53 19 63 37 
05 24 58 36 40 03 38 56 
61 09 06 49 20 50 33 32 
