P2
08 08
64
39 10 19 40 62 09 59 22 
35 02 25 26 60 14 56 42 
29 57 27 43 08 32 46 18 
16 63 37 30 33 50 03 28 
05 31 58 21 53 49 20 23 
47 36 01 12 06 45 52 61 
48 54 55 24 34 17 13 15 
41 07 38 64 04 44 11 51 
