P2
08 08
64
02 35 38 40 11 54 60 20 
24 43 44 09 59 18 21 42 
34 62 31 32 29 15 06 51 
58 03 57 05 36 17 45 39 
13 56 07 61 55 28 30 10 
33 19 16 47 22 48 49 26 
46 41 63 14 23 53 12 08 
50 01 04 52 25 27 37 64 
