P2
08 08
64
08 45 22 20 47 51 31 36 
24 60 18 42 07 35 13 61 
34 25 53 29 56 05 15 43 
32 58 09 19 63 50 27 02 
14 12 62 28 17 52 54 21 
59 33 44 10 01 38 64 11 
41 23 46 55 39 03 16 37 
48 04 06 57 30 26 40 49 
