P2
08 08
64
61 10 24 19 48 28 16 54 
07 23 47 35 17 52 46 33 
49 18 27 34 39 51 36 06 
29 37 56 20 02 03 58 55 
63 57 01 40 60 14 13 12 
11 30 38 59 05 50 25 42 
32 21 41 22 44 53 04 43 
08 64 26 31 45 09 62 15 
