P2
08 08
64
27 10 62 22 09 59 58 13 
44 12 35 18 26 32 56 37 
43 24 01 64 29 33 17 49 
05 61 02 41 39 54 16 42 
11 63 51 15 60 30 23 07 
53 55 31 03 06 28 36 48 
25 21 38 50 57 04 46 19 
52 14 40 47 34 20 08 45 
