P2
08 08
64
14 27 05 13 61 53 47 40 
51 17 45 62 12 08 56 09 
23 28 26 31 63 32 39 18 
16 42 06 30 01 52 49 64 
36 48 57 20 59 19 10 11 
37 38 55 03 15 43 34 35 
29 02 44 60 25 46 21 33 
54 58 22 41 24 07 04 50 
