P2
08 08
64
63 35 16 44 18 57 07 20 
59 03 58 48 01 10 50 31 
54 61 24 45 04 27 37 08 
34 06 26 12 51 46 33 52 
17 47 42 15 64 25 39 11 
09 60 32 21 29 28 41 40 
02 43 13 19 38 53 30 62 
22 05 49 56 55 14 23 36 
