P2
08 08
64
47 38 20 03 37 46 10 59 
56 06 34 21 30 64 32 17 
04 28 16 62 61 35 49 05 
60 63 52 36 14 09 15 11 
25 39 27 13 57 29 22 48 
43 01 58 33 02 24 55 44 
07 31 08 50 19 41 51 53 
18 54 45 42 40 12 26 23 
