P2
08 08
64
47 06 26 48 56 27 46 04 
12 52 03 63 22 18 37 53 
19 11 36 09 57 60 55 13 
50 08 10 39 07 51 33 62 
20 59 64 40 02 42 01 32 
31 45 25 17 28 41 15 58 
43 49 35 21 54 05 29 24 
38 30 61 23 34 16 44 14 
