P2
08 08
64
41 43 09 21 25 24 34 63 
03 46 29 38 61 47 22 14 
44 32 64 20 33 12 18 37 
42 28 50 16 13 07 59 45 
40 56 31 51 30 15 10 27 
11 19 36 53 23 52 58 08 
17 01 39 57 26 55 05 60 
62 35 02 04 49 48 54 06 
