P2
08 08
64
51 55 02 25 01 33 62 31 
41 04 32 49 06 57 60 11 
24 36 46 54 64 12 08 16 
09 39 29 26 63 17 27 50 
44 07 58 28 30 34 40 19 
21 13 03 20 59 56 35 53 
52 45 43 48 15 14 05 38 
18 61 47 10 22 37 23 42 
