P2
08 08
64
47 20 07 61 01 25 48 51 
33 26 52 08 30 34 17 60 
03 49 64 02 36 55 40 11 
43 24 04 53 46 41 12 37 
54 45 21 06 19 13 44 58 
23 59 31 29 16 27 57 18 
35 32 42 63 50 09 14 15 
22 05 39 38 62 56 28 10 
