P2
08 08
64
07 59 05 54 02 57 34 42 
23 64 09 38 56 17 52 01 
16 10 44 08 63 12 46 61 
32 26 39 33 37 20 55 18 
48 11 45 47 35 43 06 25 
53 29 19 15 50 27 31 36 
51 21 41 03 13 60 22 49 
30 40 58 62 04 24 14 28 
