P2
08 08
64
27 55 50 31 16 03 53 25 
05 19 18 52 20 22 61 63 
28 33 23 57 39 59 17 04 
49 48 40 45 06 01 47 24 
26 30 43 37 21 44 08 51 
60 32 12 15 62 56 10 13 
07 02 38 14 54 64 35 46 
58 41 36 09 42 11 29 34 
