P2
08 08
64
55 30 57 05 36 35 10 32 
23 22 40 12 11 39 49 64 
15 47 02 59 16 28 33 60 
14 52 31 53 45 08 50 07 
51 43 20 41 29 48 25 03 
26 56 01 62 27 17 34 37 
18 06 63 19 42 61 38 13 
58 04 46 09 54 24 21 44 
