P2
08 08
64
44 24 64 14 55 03 38 18 
16 31 52 51 50 09 04 47 
23 39 22 58 49 62 06 01 
43 28 17 11 13 60 56 32 
12 57 15 35 25 19 34 63 
20 07 42 40 08 48 59 36 
61 45 02 30 27 05 53 37 
41 29 46 21 33 54 10 26 
