P2
08 08
64
49 05 36 34 56 46 11 23 
07 14 47 30 31 37 35 59 
54 55 24 50 10 01 64 02 
28 13 17 45 44 04 48 61 
09 20 57 19 33 42 18 62 
03 63 41 27 25 60 15 26 
52 39 22 12 53 32 29 21 
58 51 16 43 08 38 40 06 
