P2
08 08
64
11 43 55 31 51 30 10 29 
62 41 03 57 14 37 45 01 
61 40 42 04 56 07 33 17 
19 06 38 13 58 50 24 52 
32 49 34 63 16 02 05 59 
36 44 09 46 39 23 35 28 
12 22 53 21 08 64 60 20 
27 15 26 25 18 47 48 54 
