P2
08 08
64
05 47 35 60 59 22 19 13 
34 33 23 02 46 56 27 39 
14 55 44 40 43 38 15 11 
51 07 06 61 48 25 54 08 
52 63 21 32 17 09 37 29 
16 24 41 49 10 18 57 45 
30 03 64 04 36 50 20 53 
58 28 26 12 01 42 31 62 
