P2
08 08
64
41 02 36 12 13 42 62 52 
06 01 31 46 51 32 43 50 
55 27 04 60 05 30 53 26 
49 56 21 29 08 38 25 34 
24 54 48 15 63 09 10 37 
59 17 45 18 28 58 16 19 
23 64 14 47 35 11 44 22 
03 39 61 33 57 40 07 20 
