P2
08 08
64
19 06 37 50 44 25 45 34 
64 41 07 11 12 43 26 56 
54 01 38 08 29 62 48 20 
30 16 57 33 03 42 61 18 
47 63 05 31 36 49 02 27 
09 46 59 17 60 14 40 15 
24 32 35 58 23 21 28 39 
13 55 22 52 53 04 10 51 
