P2
08 08
64
06 46 40 26 54 63 13 12 
64 03 30 41 36 39 42 05 
38 48 19 08 04 32 62 49 
07 59 34 56 17 27 15 45 
29 22 58 25 24 33 18 51 
55 16 20 43 35 47 21 23 
01 52 57 11 37 10 61 31 
60 14 02 50 53 09 28 44 
