P2
08 08
64
08 48 14 50 30 11 63 36 
28 49 22 46 07 44 39 25 
38 29 23 56 33 31 09 41 
18 58 35 26 34 19 15 55 
47 16 45 43 37 42 17 13 
62 04 20 12 32 57 52 21 
53 51 40 24 27 54 01 10 
06 05 61 03 60 02 64 59 
