P2
08 08
64
33 28 53 11 05 62 12 56 
60 38 03 25 23 08 59 44 
15 13 37 46 36 09 64 40 
16 10 55 50 26 48 51 04 
30 41 19 45 27 17 49 32 
47 42 29 24 63 35 06 14 
57 34 43 52 22 20 01 31 
02 54 21 07 58 61 18 39 
