P2
08 08
64
57 18 37 01 30 55 22 40 
02 54 39 26 34 21 25 59 
33 35 12 44 62 51 04 19 
06 38 15 46 28 56 64 07 
49 24 48 45 32 05 14 43 
23 36 41 60 16 17 47 20 
63 03 10 29 50 13 31 61 
27 52 58 09 08 42 53 11 
