P2
08 08
64
26 40 20 59 45 55 02 13 
51 07 63 22 49 01 42 25 
62 39 03 17 14 53 24 48 
31 35 15 38 57 08 47 29 
52 46 33 21 36 34 06 32 
18 27 58 19 37 50 23 28 
09 05 64 30 12 43 56 41 
11 61 04 54 10 16 60 44 
