P2
08 08
64
43 17 01 10 63 57 46 23 
19 35 27 53 03 24 38 61 
54 16 32 37 39 02 51 29 
07 09 50 59 42 15 26 52 
14 47 44 06 49 41 55 04 
58 31 64 33 20 11 21 22 
25 45 12 34 08 62 18 56 
40 60 30 28 36 48 05 13 
