P2
08 08
64
35 25 50 55 21 52 06 16 
01 54 08 45 60 42 46 04 
09 49 30 38 39 23 32 40 
43 02 57 15 05 48 29 61 
41 34 44 22 36 07 14 62 
53 26 31 56 47 12 18 17 
20 59 37 19 28 13 51 33 
58 11 03 10 24 63 64 27 
