P2
08 08
64
09 20 64 34 35 26 10 62 
44 27 04 12 36 47 29 61 
45 56 51 43 22 03 19 21 
06 31 39 37 24 28 63 32 
07 60 02 25 23 46 49 48 
54 11 59 33 38 41 16 08 
42 05 40 18 30 55 57 13 
53 50 01 58 52 14 17 15 
