P2
08 08
64
32 63 17 13 09 47 36 43 
18 64 28 01 50 37 57 05 
35 60 12 58 45 04 07 39 
34 22 31 51 08 46 54 14 
29 06 49 15 41 38 21 61 
40 10 62 42 44 11 03 48 
20 19 59 55 30 24 26 27 
52 16 02 25 33 53 56 23 
