P2
08 08
64
21 31 61 24 08 19 43 53 
55 29 03 59 48 49 16 01 
44 20 15 63 35 52 05 26 
12 42 17 34 37 27 50 41 
54 62 60 04 02 32 28 18 
10 40 45 11 51 38 07 58 
25 14 36 56 46 13 64 06 
39 22 23 09 33 30 47 57 
