P2
08 08
64
56 05 30 04 14 46 45 60 
31 38 51 43 54 08 16 19 
41 29 06 53 15 28 64 24 
35 34 62 03 10 47 11 58 
20 21 50 61 36 01 23 48 
26 49 12 52 63 39 02 17 
18 40 27 37 13 59 57 09 
33 44 22 07 55 32 42 25 
