P2
08 08
64
03 61 53 23 17 60 18 25 
62 47 12 58 19 08 20 34 
45 11 09 49 50 54 07 35 
22 33 27 44 28 06 41 59 
10 13 56 37 63 29 38 14 
52 05 24 02 51 16 64 46 
36 42 39 04 01 55 57 26 
30 48 40 43 31 32 15 21 
