P2
08 08
64
46 45 39 43 09 21 27 30 
25 14 32 51 60 56 18 04 
11 15 19 44 55 48 37 31 
40 07 38 49 01 41 22 62 
08 61 03 26 47 35 64 16 
63 10 54 24 02 12 59 36 
34 50 23 06 57 42 20 28 
33 58 52 17 29 05 13 53 
