P2
08 08
64
45 48 41 07 14 42 28 35 
08 51 33 44 30 24 31 39 
40 23 04 57 13 55 43 25 
34 02 03 46 56 49 58 12 
38 32 60 09 62 29 20 10 
05 50 47 21 22 19 37 59 
64 01 54 15 11 36 16 63 
26 53 18 61 52 06 27 17 
