P2
08 08
64
07 28 51 53 20 08 59 34 
32 43 54 03 44 21 52 11 
63 49 18 24 61 04 26 15 
47 17 40 38 27 36 30 25 
31 35 02 62 23 48 01 58 
42 29 39 16 12 57 09 56 
33 37 10 50 60 45 19 06 
05 22 46 14 13 41 64 55 
