P2
08 08
64
29 27 30 34 38 36 04 62 
41 31 07 51 26 03 52 49 
56 12 55 43 24 15 16 39 
33 58 22 21 10 63 35 18 
06 64 20 08 59 02 47 54 
13 40 37 11 42 46 48 23 
25 19 61 60 44 45 05 01 
57 09 28 32 17 50 53 14 
