P2
08 08
64
13 07 19 42 53 63 23 40 
51 37 47 15 08 39 05 58 
09 29 62 17 28 21 60 34 
59 16 46 36 02 04 43 54 
22 45 01 49 50 38 30 25 
33 52 26 10 20 48 57 14 
12 56 35 64 44 06 11 32 
61 18 24 27 55 41 31 03 
