P2
08 08
64
23 45 37 31 59 07 38 20 
12 48 41 35 13 43 15 53 
05 36 29 04 54 49 39 44 
57 58 06 64 21 24 28 02 
60 22 14 63 09 56 33 03 
61 01 34 10 55 08 40 51 
16 32 52 42 30 46 17 25 
26 18 47 11 19 27 50 62 
