P2
08 08
64
28 60 36 26 22 38 08 42 
43 12 51 19 62 20 21 32 
11 18 24 37 63 46 57 04 
44 17 34 29 30 47 07 52 
53 14 35 54 03 45 40 16 
49 58 06 23 39 61 15 09 
27 56 33 13 31 02 48 50 
05 25 41 59 10 01 64 55 
