P2
08 08
64
51 59 20 39 16 29 14 32 
33 12 54 17 18 53 23 50 
31 13 47 48 30 64 24 03 
43 63 26 19 02 37 08 62 
07 11 41 40 58 04 57 42 
09 49 36 10 56 22 34 44 
61 38 35 27 28 05 45 21 
25 15 01 60 52 46 55 06 
