P2
08 08
64
10 13 42 54 24 22 34 61 
14 40 64 16 46 45 26 09 
18 20 60 57 51 21 06 27 
63 58 04 12 25 30 37 31 
59 53 28 38 23 01 47 11 
62 07 05 41 43 35 19 48 
02 52 49 03 33 56 36 29 
32 17 08 39 15 50 55 44 
