P2
08 08
64
04 34 30 53 05 24 51 59 
18 64 57 06 60 13 15 27 
52 35 08 02 41 50 16 56 
42 61 32 20 43 33 10 19 
45 12 47 29 14 39 63 11 
54 26 38 40 07 37 49 09 
22 03 31 48 44 36 55 21 
23 25 17 62 46 28 01 58 
