P2
08 08
64
04 23 20 50 61 42 59 01 
56 58 62 32 27 02 13 10 
39 17 49 12 55 25 44 19 
07 29 15 11 30 60 57 51 
22 08 18 63 24 64 09 52 
46 37 35 03 41 34 31 33 
38 45 14 53 16 28 26 40 
48 43 47 36 06 05 21 54 
