P2
08 08
64
31 32 28 49 07 22 47 44 
56 21 23 53 45 01 46 15 
19 52 26 64 16 48 08 27 
10 37 12 06 63 55 39 38 
43 02 62 24 59 58 09 03 
61 54 20 13 30 18 14 50 
36 11 60 17 05 33 57 41 
04 51 29 34 35 25 40 42 
