P2
08 08
64
43 58 19 10 38 57 01 34 
64 15 04 55 26 48 28 20 
16 53 36 11 61 41 09 33 
59 23 37 29 17 63 27 05 
06 62 35 56 08 02 51 40 
13 22 46 21 32 30 42 54 
45 24 44 18 47 07 50 25 
14 03 39 60 31 12 52 49 
