P2
08 08
64
16 41 29 64 45 28 12 25 
62 30 11 44 01 31 54 27 
48 07 61 15 56 22 05 46 
49 51 33 39 19 02 63 04 
52 06 34 37 35 55 18 23 
14 60 36 38 17 21 24 50 
09 57 13 03 40 59 26 53 
10 08 43 20 47 42 58 32 
