P2
08 08
64
41 37 36 63 29 51 01 02 
24 25 33 35 10 34 47 52 
05 44 03 40 50 32 59 27 
48 30 09 21 28 64 11 49 
61 12 08 38 54 16 26 45 
60 31 56 18 58 13 04 20 
06 42 53 23 17 43 57 19 
15 39 62 22 14 07 55 46 
