P2
08 08
64
25 09 63 62 13 19 18 51 
05 57 50 37 01 38 23 49 
16 14 30 54 59 41 24 22 
32 12 45 04 35 48 44 40 
55 56 02 03 43 64 11 26 
60 20 07 31 47 27 58 10 
06 39 42 52 33 08 46 34 
61 53 21 17 29 15 36 28 
