P2
08 08
64
35 21 08 49 34 60 13 40 
58 42 01 28 32 47 37 15 
39 26 23 02 63 64 07 36 
19 31 41 17 45 33 18 56 
38 59 50 05 14 03 43 48 
24 52 27 44 46 12 51 04 
25 20 53 54 10 30 62 06 
22 09 57 61 16 11 29 55 
