P2
08 08
64
30 21 51 58 59 17 18 06 
01 38 08 50 15 49 55 44 
16 57 39 10 53 62 12 11 
32 28 60 25 36 13 19 47 
64 20 54 07 23 48 40 04 
09 24 02 46 34 37 56 52 
45 29 41 22 26 03 33 61 
63 43 05 42 14 31 27 35 
