P2
08 08
64
16 29 37 04 18 64 41 51 
59 53 15 42 46 27 13 05 
03 30 49 24 35 09 52 58 
36 62 54 28 23 31 25 01 
26 10 02 56 17 38 61 50 
60 22 39 55 44 20 06 14 
12 21 57 40 32 08 43 47 
48 33 07 11 45 63 19 34 
