P2
08 08
64
31 36 25 21 03 62 34 48 
56 22 16 55 35 04 28 44 
20 09 64 39 30 33 54 11 
41 63 08 26 47 14 46 15 
59 27 57 45 05 01 24 42 
10 02 13 49 53 51 32 50 
37 40 60 07 29 52 23 12 
06 61 17 18 58 43 19 38 
