P2
08 08
64
49 05 54 56 32 34 14 16 
59 44 03 21 41 36 04 52 
09 07 53 40 31 48 64 08 
19 20 47 25 61 43 15 30 
57 51 02 01 23 42 39 45 
29 37 58 27 13 22 63 11 
12 46 33 62 24 17 06 60 
26 50 10 28 35 18 55 38 
