P2
08 08
64
19 04 16 44 57 43 60 17 
56 31 59 52 25 23 11 03 
06 21 58 08 27 46 39 55 
15 34 48 36 64 32 02 29 
45 53 24 14 01 26 35 62 
22 51 30 37 63 40 10 07 
47 28 13 49 18 09 42 54 
50 38 12 20 05 41 61 33 
