P2
08 08
64
22 25 49 47 46 36 05 30 
06 42 62 51 09 31 57 02 
24 55 34 19 59 03 40 26 
56 23 15 58 20 18 41 29 
63 01 45 27 37 35 04 48 
07 17 16 12 54 44 50 60 
39 64 11 38 14 32 10 52 
43 33 28 08 21 61 53 13 
