P2
08 08
64
49 28 63 17 13 54 04 32 
47 03 16 18 35 27 61 53 
48 43 10 62 21 20 55 01 
46 02 45 60 07 22 36 42 
12 58 24 52 50 23 15 26 
19 29 34 38 64 33 37 06 
25 40 59 08 31 30 11 56 
14 57 09 05 39 51 41 44 
