P2
08 08
64
38 06 62 04 37 49 28 36 
59 13 20 26 03 58 24 57 
42 44 18 21 54 14 12 55 
16 17 60 56 47 01 32 31 
29 43 05 61 11 50 53 08 
09 51 22 30 27 35 40 46 
52 41 10 39 33 19 64 02 
15 45 63 23 48 34 07 25 
