P2
08 08
64
57 19 12 55 25 34 05 53 
26 09 60 10 20 44 27 64 
47 31 33 13 58 17 39 22 
24 54 16 38 45 42 35 06 
04 41 28 46 50 32 52 07 
51 43 01 59 18 14 11 63 
03 23 61 37 36 56 29 15 
48 40 49 02 08 21 62 30 
