P2
08 08
64
04 37 52 64 03 38 23 39 
41 12 33 20 17 31 46 60 
56 55 26 42 21 22 09 29 
34 18 25 30 58 13 54 28 
48 40 43 16 49 06 57 01 
62 07 27 24 02 61 45 32 
10 47 35 50 59 36 15 08 
05 44 19 14 51 53 11 63 
