P2
08 08
64
51 31 28 42 35 60 07 06 
12 58 24 39 13 25 55 34 
52 59 23 16 64 27 02 17 
05 03 43 37 53 41 46 32 
30 54 61 10 21 18 09 57 
44 08 48 15 50 01 45 49 
19 14 22 63 04 62 40 36 
47 33 11 38 20 26 56 29 
