P2
08 08
64
62 16 29 41 50 04 07 51 
53 17 52 33 26 11 37 31 
09 01 60 06 35 43 59 47 
34 57 18 08 27 64 30 22 
44 36 20 25 49 03 45 38 
23 40 24 63 05 32 61 12 
21 39 42 28 10 55 19 46 
14 54 15 56 58 48 02 13 
