P2
08 08
64
56 54 36 28 12 53 07 14 
30 05 39 24 15 55 59 33 
37 61 43 08 62 02 44 03 
26 21 18 45 50 48 51 01 
41 10 34 64 06 38 25 42 
09 40 22 27 57 31 11 63 
29 17 49 60 23 20 16 46 
32 52 19 04 35 13 47 58 
