P2
08 08
64
23 37 64 12 58 04 53 09 
51 13 16 34 36 60 08 42 
62 01 38 11 30 33 39 46 
50 63 32 18 14 07 61 15 
05 17 25 57 43 29 56 28 
06 48 55 22 24 49 02 54 
19 40 03 59 35 52 31 21 
44 41 27 47 20 26 10 45 
