P2
08 08
64
10 08 46 34 62 05 38 57 
42 48 37 40 18 27 17 31 
16 59 13 07 11 52 41 61 
39 22 43 54 45 03 35 19 
32 14 23 47 36 53 25 30 
49 51 28 01 04 55 63 09 
60 02 64 44 26 15 20 29 
12 56 06 33 58 50 21 24 
