P2
08 08
64
38 51 10 28 22 53 02 56 
32 33 59 15 57 60 03 01 
29 04 20 55 37 41 44 30 
16 34 17 50 26 14 40 63 
07 46 35 39 19 08 45 61 
48 62 23 42 24 21 31 09 
36 18 47 25 64 05 52 13 
54 12 49 06 11 58 43 27 
