P2
08 08
64
41 60 02 61 06 39 46 05 
45 26 56 08 27 25 59 14 
57 01 44 30 10 16 50 52 
22 48 18 28 29 63 15 37 
24 51 54 42 43 03 12 31 
07 40 33 23 49 35 20 53 
09 21 19 64 38 62 11 36 
55 13 34 04 58 17 47 32 
