P2
08 08
64
40 14 37 54 06 47 12 50 
35 48 44 04 17 31 51 30 
13 15 55 58 62 11 27 19 
10 02 46 56 45 43 33 25 
59 26 23 05 29 08 53 57 
18 34 16 52 32 20 39 49 
63 60 01 07 41 64 03 21 
22 61 38 24 28 36 42 09 
