P2
08 08
64
07 09 15 51 28 60 43 47 
25 52 12 58 31 55 22 05 
57 03 21 38 19 45 53 24 
37 11 40 41 23 26 64 18 
35 34 39 02 44 20 32 54 
50 29 42 48 13 10 06 62 
33 63 30 14 56 27 36 01 
16 59 61 08 46 17 04 49 
