P2
08 08
64
23 12 55 43 26 34 06 61 
03 04 13 36 58 37 59 50 
11 31 49 18 57 33 56 05 
54 64 16 51 19 02 47 07 
40 28 42 21 48 27 22 32 
24 62 01 44 25 35 09 60 
53 14 46 39 10 63 20 15 
52 45 38 08 17 29 41 30 
