P2
08 08
64
45 47 24 58 12 31 34 09 
04 33 20 43 06 38 63 53 
27 08 44 55 25 46 03 52 
64 32 51 07 40 02 54 10 
49 57 18 01 59 29 11 36 
15 35 42 05 17 30 60 56 
19 22 48 41 39 61 14 16 
37 26 13 50 62 23 21 28 
