P2
08 08
64
46 58 32 39 53 05 25 02 
14 22 27 43 38 18 34 64 
33 28 31 11 37 60 52 08 
55 17 40 49 09 48 26 16 
03 62 23 30 07 57 15 63 
20 10 12 61 41 24 50 42 
35 59 51 21 19 01 45 29 
54 04 44 06 56 47 13 36 
