P2
08 08
64
25 36 14 51 44 11 34 45 
06 60 58 29 28 12 10 57 
48 15 23 20 39 37 59 19 
01 42 17 38 62 54 43 03 
49 02 64 05 08 47 50 35 
26 31 07 56 46 63 18 13 
52 41 22 40 24 04 16 61 
53 33 55 21 09 32 30 27 
