P2
08 08
64
59 25 11 15 08 46 36 60 
23 20 56 51 42 04 54 10 
48 55 27 29 18 50 19 14 
17 12 41 57 37 07 31 58 
39 24 52 40 26 43 02 34 
16 62 05 53 64 03 22 35 
45 01 38 06 32 63 47 28 
13 61 30 09 33 44 49 21 
