P2
08 08
64
05 34 26 45 43 15 50 42 
29 33 57 58 19 09 28 27 
47 12 06 21 60 49 10 55 
54 04 62 08 41 40 07 44 
17 30 52 01 61 11 64 24 
31 59 23 56 13 48 16 14 
38 37 02 46 03 53 63 18 
39 51 32 25 20 35 22 36 
