P2
08 08
64
27 24 01 55 02 52 51 48 
36 16 06 63 49 19 17 54 
20 45 56 47 39 34 05 14 
25 26 38 30 11 07 64 59 
61 37 29 12 60 15 28 18 
43 58 57 03 23 21 33 22 
13 46 42 40 44 62 09 04 
35 08 31 10 32 50 53 41 
