P2
08 08
64
01 31 64 41 26 55 17 25 
53 63 10 51 08 20 34 21 
30 44 03 29 38 09 62 45 
14 46 49 16 59 48 15 13 
60 19 12 23 36 52 04 54 
27 33 57 42 50 22 24 05 
40 18 28 56 11 07 61 39 
35 06 37 02 32 47 43 58 
