P2
08 08
64
43 42 44 40 54 29 02 06 
47 10 39 05 41 51 49 18 
48 16 36 30 11 57 37 25 
33 04 07 53 38 35 56 34 
14 58 03 08 32 22 59 64 
50 21 55 19 09 27 17 62 
24 46 61 45 23 13 28 20 
01 63 15 60 52 26 12 31 
