P2
08 08
64
23 62 46 55 05 18 50 01 
17 58 56 08 09 63 35 14 
13 40 19 31 29 42 33 53 
49 22 34 30 61 12 04 48 
54 11 44 25 27 43 24 32 
36 28 38 64 26 07 16 45 
47 37 20 41 51 15 39 10 
21 02 03 06 52 60 59 57 
