P2
08 08
64
04 59 02 50 43 41 21 40 
23 48 62 46 05 20 26 30 
19 49 57 11 64 06 42 12 
38 08 17 37 53 28 25 54 
34 01 61 14 36 47 45 22 
39 31 15 29 24 44 18 60 
52 55 33 10 32 16 27 35 
51 09 13 63 03 58 56 07 
