P2
08 08
64
24 16 60 45 35 13 03 64 
11 43 36 63 10 41 05 51 
48 18 09 20 15 57 55 38 
32 23 26 56 40 14 44 25 
61 27 46 21 33 02 28 42 
47 17 04 37 19 53 52 31 
30 62 50 12 49 22 34 01 
07 54 29 06 59 58 39 08 
