P2
08 08
64
42 51 25 21 15 29 38 39 
36 62 28 53 18 05 06 52 
57 35 19 22 64 46 16 01 
47 40 09 45 27 31 44 17 
20 12 24 61 32 04 48 59 
07 23 41 02 34 49 50 54 
37 26 58 13 60 33 03 30 
14 11 56 43 10 63 55 08 
