P2
08 08
64
07 43 25 53 44 54 14 20 
36 13 40 58 15 42 51 05 
12 31 57 27 16 23 33 61 
47 28 26 32 52 02 35 38 
64 18 01 03 50 22 39 63 
49 62 21 59 06 45 10 08 
11 56 60 04 29 17 37 46 
34 09 30 24 48 55 41 19 
