P2
08 08
64
63 45 39 12 10 59 27 05 
41 33 37 62 15 07 64 01 
09 21 23 24 38 54 44 47 
03 49 56 22 36 57 02 35 
58 42 26 28 25 13 51 17 
52 19 32 53 50 14 06 34 
04 11 18 43 55 48 20 61 
30 40 29 16 31 08 46 60 
