P2
08 08
64
19 58 18 43 01 54 57 10 
42 16 37 34 48 11 13 59 
49 20 02 28 03 56 61 41 
32 35 33 30 40 21 64 05 
50 29 31 26 60 44 06 14 
15 39 24 52 12 63 09 46 
17 55 53 22 45 07 23 38 
36 08 62 25 51 04 27 47 
