P2
08 08
64
05 02 29 36 21 46 61 60 
04 49 32 64 14 63 11 23 
24 52 47 58 30 15 16 18 
43 03 44 26 40 31 56 17 
55 42 01 13 59 35 07 48 
38 53 37 33 06 19 20 54 
57 50 45 08 51 10 27 12 
34 09 25 22 39 41 62 28 
