P2
08 08
64
61 03 42 09 57 06 20 62 
10 39 36 37 41 04 58 35 
55 33 34 53 16 17 02 50 
18 22 51 29 14 56 43 27 
30 63 24 49 19 01 28 46 
23 59 13 05 21 60 54 25 
31 15 48 38 45 64 11 08 
32 26 12 40 47 52 44 07 
