P2
08 08
64
47 21 42 41 49 02 33 25 
07 13 60 01 54 53 55 17 
64 06 52 44 11 24 14 45 
26 59 05 08 56 40 03 63 
38 37 57 39 28 12 27 22 
10 30 09 58 18 43 31 61 
48 32 16 35 29 50 46 04 
20 62 19 34 15 36 51 23 
