P2
08 08
64
47 59 10 38 12 40 17 37 
44 35 31 32 28 56 25 09 
22 34 58 06 55 01 39 45 
18 07 57 30 52 20 14 62 
03 33 08 49 42 61 43 21 
54 50 16 36 26 13 63 02 
19 27 51 05 41 46 11 60 
53 15 29 64 04 23 48 24 
