P2
08 08
64
21 09 44 03 43 52 47 41 
54 18 27 55 20 19 29 38 
51 14 59 61 05 15 23 32 
01 07 57 42 30 60 53 10 
56 40 37 50 36 02 08 31 
48 45 06 11 46 16 39 49 
04 64 17 26 58 34 33 24 
25 63 13 12 22 62 28 35 
