P2
08 08
64
43 51 35 13 08 20 49 41 
44 31 45 37 04 55 10 34 
02 46 15 58 01 40 42 56 
50 06 63 14 60 03 47 17 
26 07 16 59 62 33 52 05 
25 53 11 18 64 28 29 32 
61 30 54 22 23 24 19 27 
09 36 21 39 38 57 12 48 
