P2
08 08
64
19 32 28 59 20 50 34 18 
54 21 52 14 47 26 45 01 
15 43 41 40 07 22 31 61 
58 05 55 38 17 62 23 02 
44 42 03 46 27 60 29 09 
25 56 36 04 64 16 10 49 
06 37 33 51 30 11 35 57 
39 24 12 08 48 13 53 63 
