P2
08 08
64
22 46 51 06 23 09 60 43 
64 03 04 63 37 33 40 16 
02 18 56 41 39 27 15 62 
19 31 21 42 05 28 53 61 
36 44 29 35 20 57 13 26 
25 59 58 10 34 55 11 08 
47 07 17 49 48 50 30 12 
45 52 24 14 54 01 38 32 
