P2
08 08
64
47 41 30 24 07 19 35 57 
01 54 36 53 27 05 40 44 
20 25 32 64 48 51 09 11 
33 12 43 15 34 50 63 10 
56 61 06 04 21 18 49 45 
60 37 52 39 26 17 13 16 
29 08 02 58 42 62 28 31 
14 22 59 03 55 38 23 46 
